<svg xmlns="http://www.w3.org/2000/svg" xmlns:xlink="http://www.w3.org/1999/xlink" width="500" zoomAndPan="magnify" viewBox="0 0 375 374.999991" height="500" preserveAspectRatio="xMidYMid meet" version="1.2"><defs><clipPath id="4c16f68889"><path d="M 131 182 L 179.5 182 L 179.5 233.621094 L 131 233.621094 Z M 131 182 "/></clipPath><clipPath id="25d9017869"><path d="M 127.75 176.621094 L 158 176.621094 L 158 226 L 127.75 226 Z M 127.75 176.621094 "/></clipPath><clipPath id="06935323ac"><path d="M 122.832031 175.410156 L 127.75 175.410156 L 127.75 233.28125 L 122.832031 233.28125 Z M 122.832031 175.410156 "/></clipPath></defs><g id="6487bc33f8"><path style=" stroke:none;fill-rule:nonzero;fill:#3871c1;fill-opacity:1;" d="M 168.308594 207.722656 L 151.636719 179.289062 C 151.636719 179.289062 148.832031 181.066406 145.835938 183.839844 L 147.503906 186.6875 C 148.433594 186.1875 149.445312 185.730469 150.550781 185.34375 L 162.980469 205.78125 C 162.980469 205.78125 137.304688 214.59375 130.816406 229.9375 C 130.816406 229.9375 140.847656 214.792969 168.308594 207.722656 "/><g clip-rule="nonzero" clip-path="url(#4c16f68889)"><path style=" stroke:none;fill-rule:nonzero;fill:#2e3192;fill-opacity:1;" d="M 162.816406 182.332031 C 162.816406 182.332031 160.015625 184.109375 157.019531 186.886719 L 158.6875 189.730469 C 159.613281 189.234375 160.625 188.777344 161.734375 188.386719 L 174.164062 208.824219 C 174.164062 208.824219 142.230469 216.097656 131.125 233.621094 C 131.125 233.621094 145.683594 219.152344 179.488281 210.769531 L 162.816406 182.332031 "/></g><g clip-rule="nonzero" clip-path="url(#25d9017869)"><path style=" stroke:none;fill-rule:nonzero;fill:#00adef;fill-opacity:1;" d="M 130.457031 225.59375 C 130.457031 225.59375 137.933594 210.253906 157.359375 205.058594 L 140.6875 176.621094 C 140.6875 176.621094 128.039062 184.636719 127.761719 193.207031 C 127.761719 193.207031 130.722656 185.804688 139.601562 182.675781 L 152.03125 203.113281 C 152.03125 203.113281 134.484375 210.742188 130.457031 225.59375 "/></g><g clip-rule="nonzero" clip-path="url(#06935323ac)"><path style=" stroke:none;fill-rule:nonzero;fill:#00adef;fill-opacity:1;" d="M 122.832031 175.410156 L 127.75 175.410156 L 127.75 233.28125 L 122.832031 233.28125 Z M 122.832031 175.410156 "/></g><g style="fill:#2e3192;fill-opacity:1;"><g transform="translate(122.831394, 266.704115)"><path style="stroke:none" d="M 0.84375 0.671875 C 1.03125 0.671875 1.171875 0.628906 1.265625 0.546875 C 1.367188 0.460938 1.476562 0.265625 1.59375 -0.046875 L 0.0625 -3.75 L 0.765625 -3.75 L 1.90625 -0.671875 L 3 -3.75 L 3.671875 -3.75 L 2.140625 0.25 C 2.003906 0.613281 1.84375 0.867188 1.65625 1.015625 C 1.476562 1.160156 1.242188 1.234375 0.953125 1.234375 C 0.867188 1.234375 0.78125 1.226562 0.6875 1.21875 C 0.59375 1.207031 0.5 1.191406 0.40625 1.171875 L 0.40625 0.625 C 0.46875 0.644531 0.53125 0.65625 0.59375 0.65625 C 0.664062 0.664062 0.75 0.671875 0.84375 0.671875 Z M 0.84375 0.671875 "/></g></g><g style="fill:#2e3192;fill-opacity:1;"><g transform="translate(126.593669, 266.704115)"><path style="stroke:none" d="M 3.796875 -1.890625 C 3.796875 -1.171875 3.664062 -0.664062 3.40625 -0.375 C 3.144531 -0.0820312 2.695312 0.0625 2.0625 0.0625 C 1.40625 0.0625 0.953125 -0.078125 0.703125 -0.359375 C 0.453125 -0.648438 0.328125 -1.160156 0.328125 -1.890625 C 0.328125 -2.597656 0.457031 -3.097656 0.71875 -3.390625 C 0.976562 -3.679688 1.425781 -3.828125 2.0625 -3.828125 C 2.71875 -3.828125 3.171875 -3.6875 3.421875 -3.40625 C 3.671875 -3.125 3.796875 -2.617188 3.796875 -1.890625 Z M 0.953125 -1.890625 C 0.953125 -1.335938 1.023438 -0.96875 1.171875 -0.78125 C 1.316406 -0.601562 1.613281 -0.515625 2.0625 -0.515625 C 2.5 -0.515625 2.789062 -0.609375 2.9375 -0.796875 C 3.09375 -0.984375 3.171875 -1.347656 3.171875 -1.890625 C 3.171875 -2.441406 3.097656 -2.804688 2.953125 -2.984375 C 2.804688 -3.171875 2.507812 -3.265625 2.0625 -3.265625 C 1.625 -3.265625 1.328125 -3.171875 1.171875 -2.984375 C 1.023438 -2.796875 0.953125 -2.429688 0.953125 -1.890625 Z M 0.953125 -1.890625 "/></g></g><g style="fill:#2e3192;fill-opacity:1;"><g transform="translate(130.720773, 266.704115)"><path style="stroke:none" d="M 1.71875 0.0625 C 1.300781 0.0625 0.988281 -0.0390625 0.78125 -0.25 C 0.570312 -0.457031 0.46875 -0.769531 0.46875 -1.1875 L 0.46875 -3.75 L 1.09375 -3.75 L 1.09375 -1.265625 C 1.09375 -1.003906 1.15625 -0.816406 1.28125 -0.703125 C 1.414062 -0.585938 1.625 -0.53125 1.90625 -0.53125 C 2.082031 -0.53125 2.257812 -0.550781 2.4375 -0.59375 C 2.613281 -0.632812 2.789062 -0.703125 2.96875 -0.796875 L 2.96875 -3.75 L 3.578125 -3.75 L 3.578125 0 L 3.015625 0 L 2.984375 -0.3125 L 2.96875 -0.3125 C 2.707031 -0.175781 2.476562 -0.078125 2.28125 -0.015625 C 2.09375 0.0351562 1.90625 0.0625 1.71875 0.0625 Z M 1.71875 0.0625 "/></g></g><g style="fill:#2e3192;fill-opacity:1;"><g transform="translate(134.809871, 266.704115)"><path style="stroke:none" d="M 1.125 0 L 0.5 0 L 0.5 -3.75 L 1.078125 -3.75 L 1.09375 -3.4375 L 1.125 -3.4375 C 1.320312 -3.550781 1.519531 -3.632812 1.71875 -3.6875 C 1.914062 -3.75 2.113281 -3.78125 2.3125 -3.78125 C 2.394531 -3.78125 2.445312 -3.78125 2.46875 -3.78125 C 2.5 -3.78125 2.519531 -3.78125 2.53125 -3.78125 L 2.53125 -3.171875 C 2.5 -3.179688 2.457031 -3.1875 2.40625 -3.1875 C 2.351562 -3.195312 2.269531 -3.203125 2.15625 -3.203125 C 1.976562 -3.203125 1.800781 -3.175781 1.625 -3.125 C 1.445312 -3.082031 1.28125 -3.019531 1.125 -2.9375 Z M 1.125 0 "/></g></g><g style="fill:#2e3192;fill-opacity:1;"><g transform="translate(137.492867, 266.704115)"><path style="stroke:none" d=""/></g></g><g style="fill:#2e3192;fill-opacity:1;"><g transform="translate(138.792561, 266.704115)"><path style="stroke:none" d="M 1.796875 -3.265625 C 1.472656 -3.265625 1.25 -3.222656 1.125 -3.140625 C 1 -3.066406 0.9375 -2.914062 0.9375 -2.6875 C 0.9375 -2.5625 0.960938 -2.46875 1.015625 -2.40625 C 1.078125 -2.34375 1.171875 -2.300781 1.296875 -2.28125 L 2.265625 -2.140625 C 2.566406 -2.097656 2.773438 -2.003906 2.890625 -1.859375 C 3.015625 -1.710938 3.078125 -1.484375 3.078125 -1.171875 C 3.078125 -0.742188 2.972656 -0.429688 2.765625 -0.234375 C 2.554688 -0.0351562 2.210938 0.0625 1.734375 0.0625 C 1.453125 0.0625 1.1875 0.046875 0.9375 0.015625 C 0.6875 -0.015625 0.476562 -0.0546875 0.3125 -0.109375 L 0.3125 -0.6875 C 0.476562 -0.632812 0.675781 -0.59375 0.90625 -0.5625 C 1.144531 -0.53125 1.390625 -0.515625 1.640625 -0.515625 C 1.953125 -0.515625 2.164062 -0.5625 2.28125 -0.65625 C 2.394531 -0.75 2.453125 -0.910156 2.453125 -1.140625 C 2.453125 -1.285156 2.421875 -1.390625 2.359375 -1.453125 C 2.296875 -1.523438 2.175781 -1.578125 2 -1.609375 L 1.046875 -1.75 C 0.796875 -1.78125 0.609375 -1.867188 0.484375 -2.015625 C 0.367188 -2.171875 0.3125 -2.394531 0.3125 -2.6875 C 0.3125 -3.082031 0.425781 -3.367188 0.65625 -3.546875 C 0.894531 -3.734375 1.257812 -3.828125 1.75 -3.828125 C 1.957031 -3.828125 2.140625 -3.820312 2.296875 -3.8125 C 2.460938 -3.800781 2.640625 -3.78125 2.828125 -3.75 L 2.828125 -3.203125 C 2.691406 -3.222656 2.535156 -3.238281 2.359375 -3.25 C 2.179688 -3.257812 1.992188 -3.265625 1.796875 -3.265625 Z M 1.796875 -3.265625 "/></g></g><g style="fill:#2e3192;fill-opacity:1;"><g transform="translate(142.129203, 266.704115)"><path style="stroke:none" d="M 1.125 -5.046875 L 1.125 0 L 0.5 0 L 0.5 -5.046875 Z M 1.125 -5.046875 "/></g></g><g style="fill:#2e3192;fill-opacity:1;"><g transform="translate(143.755722, 266.704115)"><path style="stroke:none" d="M 3.796875 -1.890625 C 3.796875 -1.171875 3.664062 -0.664062 3.40625 -0.375 C 3.144531 -0.0820312 2.695312 0.0625 2.0625 0.0625 C 1.40625 0.0625 0.953125 -0.078125 0.703125 -0.359375 C 0.453125 -0.648438 0.328125 -1.160156 0.328125 -1.890625 C 0.328125 -2.597656 0.457031 -3.097656 0.71875 -3.390625 C 0.976562 -3.679688 1.425781 -3.828125 2.0625 -3.828125 C 2.71875 -3.828125 3.171875 -3.6875 3.421875 -3.40625 C 3.671875 -3.125 3.796875 -2.617188 3.796875 -1.890625 Z M 0.953125 -1.890625 C 0.953125 -1.335938 1.023438 -0.96875 1.171875 -0.78125 C 1.316406 -0.601562 1.613281 -0.515625 2.0625 -0.515625 C 2.5 -0.515625 2.789062 -0.609375 2.9375 -0.796875 C 3.09375 -0.984375 3.171875 -1.347656 3.171875 -1.890625 C 3.171875 -2.441406 3.097656 -2.804688 2.953125 -2.984375 C 2.804688 -3.171875 2.507812 -3.265625 2.0625 -3.265625 C 1.625 -3.265625 1.328125 -3.171875 1.171875 -2.984375 C 1.023438 -2.796875 0.953125 -2.429688 0.953125 -1.890625 Z M 0.953125 -1.890625 "/></g></g><g style="fill:#2e3192;fill-opacity:1;"><g transform="translate(147.882826, 266.704115)"><path style="stroke:none" d="M 2.03125 1.234375 C 1.769531 1.234375 1.53125 1.210938 1.3125 1.171875 C 1.09375 1.140625 0.914062 1.097656 0.78125 1.046875 L 0.78125 0.5 C 0.894531 0.539062 1.0625 0.578125 1.28125 0.609375 C 1.507812 0.640625 1.734375 0.65625 1.953125 0.65625 C 2.335938 0.65625 2.601562 0.578125 2.75 0.421875 C 2.894531 0.273438 2.96875 0.015625 2.96875 -0.359375 L 2.96875 -0.59375 C 2.78125 -0.488281 2.578125 -0.40625 2.359375 -0.34375 C 2.148438 -0.289062 1.9375 -0.265625 1.71875 -0.265625 C 1.21875 -0.265625 0.859375 -0.398438 0.640625 -0.671875 C 0.429688 -0.953125 0.328125 -1.410156 0.328125 -2.046875 C 0.328125 -2.679688 0.460938 -3.132812 0.734375 -3.40625 C 1.015625 -3.6875 1.488281 -3.828125 2.15625 -3.828125 C 2.382812 -3.828125 2.632812 -3.8125 2.90625 -3.78125 C 3.1875 -3.757812 3.414062 -3.726562 3.59375 -3.6875 L 3.59375 -0.546875 C 3.59375 0.117188 3.472656 0.582031 3.234375 0.84375 C 3.003906 1.101562 2.601562 1.234375 2.03125 1.234375 Z M 2.15625 -3.265625 C 1.664062 -3.265625 1.34375 -3.179688 1.1875 -3.015625 C 1.03125 -2.847656 0.953125 -2.523438 0.953125 -2.046875 C 0.953125 -1.585938 1.019531 -1.269531 1.15625 -1.09375 C 1.289062 -0.914062 1.546875 -0.828125 1.921875 -0.828125 C 2.085938 -0.828125 2.257812 -0.851562 2.4375 -0.90625 C 2.625 -0.957031 2.800781 -1.023438 2.96875 -1.109375 L 2.96875 -3.1875 C 2.84375 -3.207031 2.710938 -3.222656 2.578125 -3.234375 C 2.441406 -3.253906 2.300781 -3.265625 2.15625 -3.265625 Z M 2.15625 -3.265625 "/></g></g><g style="fill:#2e3192;fill-opacity:1;"><g transform="translate(151.971924, 266.704115)"><path style="stroke:none" d="M 1.359375 0.0625 C 0.972656 0.0625 0.6875 -0.03125 0.5 -0.21875 C 0.320312 -0.40625 0.234375 -0.695312 0.234375 -1.09375 C 0.234375 -1.5 0.34375 -1.785156 0.5625 -1.953125 C 0.78125 -2.117188 1.148438 -2.203125 1.671875 -2.203125 C 1.835938 -2.203125 2.003906 -2.195312 2.171875 -2.1875 C 2.347656 -2.175781 2.507812 -2.15625 2.65625 -2.125 L 2.65625 -2.484375 C 2.65625 -2.765625 2.582031 -2.960938 2.4375 -3.078125 C 2.289062 -3.203125 2.0625 -3.265625 1.75 -3.265625 C 1.519531 -3.265625 1.316406 -3.253906 1.140625 -3.234375 C 0.960938 -3.222656 0.785156 -3.195312 0.609375 -3.15625 L 0.609375 -3.6875 C 0.804688 -3.738281 1.007812 -3.773438 1.21875 -3.796875 C 1.4375 -3.816406 1.675781 -3.828125 1.9375 -3.828125 C 2.394531 -3.828125 2.726562 -3.722656 2.9375 -3.515625 C 3.15625 -3.304688 3.265625 -2.976562 3.265625 -2.53125 L 3.265625 0 L 2.703125 0 L 2.671875 -0.34375 L 2.65625 -0.34375 C 2.507812 -0.226562 2.3125 -0.128906 2.0625 -0.046875 C 1.820312 0.0234375 1.585938 0.0625 1.359375 0.0625 Z M 1.734375 -1.703125 C 1.390625 -1.703125 1.148438 -1.660156 1.015625 -1.578125 C 0.878906 -1.492188 0.8125 -1.34375 0.8125 -1.125 C 0.8125 -0.90625 0.867188 -0.742188 0.984375 -0.640625 C 1.097656 -0.546875 1.28125 -0.5 1.53125 -0.5 C 1.726562 -0.5 1.929688 -0.53125 2.140625 -0.59375 C 2.347656 -0.65625 2.519531 -0.726562 2.65625 -0.8125 L 2.65625 -1.625 C 2.488281 -1.644531 2.332031 -1.660156 2.1875 -1.671875 C 2.039062 -1.691406 1.890625 -1.703125 1.734375 -1.703125 Z M 1.734375 -1.703125 "/></g></g><g style="fill:#2e3192;fill-opacity:1;"><g transform="translate(155.719001, 266.704115)"><path style="stroke:none" d="M 1.125 0 L 0.5 0 L 0.5 -3.75 L 1.046875 -3.75 L 1.078125 -3.390625 L 1.09375 -3.390625 C 1.289062 -3.535156 1.5 -3.644531 1.71875 -3.71875 C 1.945312 -3.789062 2.195312 -3.828125 2.46875 -3.828125 C 2.882812 -3.828125 3.195312 -3.722656 3.40625 -3.515625 C 3.625 -3.304688 3.734375 -3 3.734375 -2.59375 L 3.734375 0 L 3.109375 0 L 3.109375 -2.515625 C 3.109375 -2.773438 3.035156 -2.960938 2.890625 -3.078125 C 2.753906 -3.203125 2.539062 -3.265625 2.25 -3.265625 C 2.0625 -3.265625 1.875 -3.234375 1.6875 -3.171875 C 1.5 -3.117188 1.3125 -3.035156 1.125 -2.921875 Z M 1.125 0 "/></g></g><g style="fill:#2e3192;fill-opacity:1;"><g transform="translate(122.831394, 245.523287)"><path style="stroke:none" d="M 12.46875 -4.734375 C 13.300781 -4.566406 13.9375 -4.296875 14.375 -3.921875 C 14.820312 -3.546875 15.046875 -3.082031 15.046875 -2.53125 C 15.046875 -1.726562 14.519531 -1.101562 13.46875 -0.65625 C 12.425781 -0.21875 10.941406 0 9.015625 0 L 0.90625 0 L 0.90625 -9.0625 L 10.015625 -9.0625 C 11.390625 -9.0625 12.445312 -8.847656 13.1875 -8.421875 C 13.925781 -7.992188 14.296875 -7.378906 14.296875 -6.578125 C 14.296875 -5.691406 13.6875 -5.078125 12.46875 -4.734375 Z M 5.984375 -5.765625 L 8.796875 -5.765625 C 9.367188 -5.765625 9.65625 -5.878906 9.65625 -6.109375 C 9.65625 -6.390625 9.367188 -6.53125 8.796875 -6.53125 L 5.984375 -6.53125 Z M 9.15625 -2.53125 C 9.726562 -2.53125 10.015625 -2.675781 10.015625 -2.96875 C 10.015625 -3.257812 9.726562 -3.40625 9.15625 -3.40625 L 5.984375 -3.40625 L 5.984375 -2.53125 Z M 9.15625 -2.53125 "/></g></g><g style="fill:#2e3192;fill-opacity:1;"><g transform="translate(138.649829, 245.523287)"><path style="stroke:none" d="M 7.4375 0.1875 C 5.257812 0.1875 3.582031 -0.144531 2.40625 -0.8125 C 1.226562 -1.476562 0.640625 -2.414062 0.640625 -3.625 C 0.640625 -4.84375 1.226562 -5.78125 2.40625 -6.4375 C 3.582031 -7.101562 5.257812 -7.4375 7.4375 -7.4375 C 9.601562 -7.4375 11.273438 -7.101562 12.453125 -6.4375 C 13.640625 -5.78125 14.234375 -4.84375 14.234375 -3.625 C 14.234375 -2.414062 13.640625 -1.476562 12.453125 -0.8125 C 11.273438 -0.144531 9.601562 0.1875 7.4375 0.1875 Z M 7.4375 -2.53125 C 7.988281 -2.53125 8.410156 -2.628906 8.703125 -2.828125 C 9.003906 -3.023438 9.15625 -3.289062 9.15625 -3.625 C 9.15625 -3.976562 9.003906 -4.25 8.703125 -4.4375 C 8.410156 -4.625 7.988281 -4.71875 7.4375 -4.71875 C 6.875 -4.71875 6.441406 -4.625 6.140625 -4.4375 C 5.847656 -4.25 5.703125 -3.976562 5.703125 -3.625 C 5.703125 -3.289062 5.847656 -3.023438 6.140625 -2.828125 C 6.441406 -2.628906 6.875 -2.53125 7.4375 -2.53125 Z M 7.4375 -2.53125 "/></g></g><g style="fill:#2e3192;fill-opacity:1;"><g transform="translate(153.507926, 245.523287)"><path style="stroke:none" d="M 7.4375 0.1875 C 5.257812 0.1875 3.582031 -0.144531 2.40625 -0.8125 C 1.226562 -1.476562 0.640625 -2.414062 0.640625 -3.625 C 0.640625 -4.84375 1.226562 -5.78125 2.40625 -6.4375 C 3.582031 -7.101562 5.257812 -7.4375 7.4375 -7.4375 C 9.601562 -7.4375 11.273438 -7.101562 12.453125 -6.4375 C 13.640625 -5.78125 14.234375 -4.84375 14.234375 -3.625 C 14.234375 -2.414062 13.640625 -1.476562 12.453125 -0.8125 C 11.273438 -0.144531 9.601562 0.1875 7.4375 0.1875 Z M 7.4375 -2.53125 C 7.988281 -2.53125 8.410156 -2.628906 8.703125 -2.828125 C 9.003906 -3.023438 9.15625 -3.289062 9.15625 -3.625 C 9.15625 -3.976562 9.003906 -4.25 8.703125 -4.4375 C 8.410156 -4.625 7.988281 -4.71875 7.4375 -4.71875 C 6.875 -4.71875 6.441406 -4.625 6.140625 -4.4375 C 5.847656 -4.25 5.703125 -3.976562 5.703125 -3.625 C 5.703125 -3.289062 5.847656 -3.023438 6.140625 -2.828125 C 6.441406 -2.628906 6.875 -2.53125 7.4375 -2.53125 Z M 7.4375 -2.53125 "/></g></g><g style="fill:#2e3192;fill-opacity:1;"><g transform="translate(168.366024, 245.523287)"><path style="stroke:none" d="M 0.90625 0 L 0.90625 -9.0625 L 5.984375 -9.0625 L 5.984375 -4.984375 L 9.421875 -7.25 L 14.5 -7.25 L 9.734375 -4.125 L 14.59375 0 L 9.328125 0 L 6.765625 -2.171875 L 5.984375 -1.671875 L 5.984375 0 Z M 0.90625 0 "/></g></g><g style="fill:#2e3192;fill-opacity:1;"><g transform="translate(183.316972, 245.523287)"><path style="stroke:none" d=""/></g></g><g style="fill:#2e3192;fill-opacity:1;"><g transform="translate(122.831394, 255.930444)"><path style="stroke:none" d="M 3.84375 -2.703125 L 0.9375 -1.3125 C 1.84375 -0.832031 2.84375 -0.46875 3.9375 -0.21875 C 5.039062 0.03125 6.148438 0.148438 7.265625 0.140625 C 9.441406 0.148438 11.117188 -0.0390625 12.296875 -0.4375 C 13.472656 -0.84375 14.0625 -1.4375 14.0625 -2.21875 C 14.0625 -2.71875 13.894531 -3.125 13.5625 -3.4375 C 13.226562 -3.757812 12.789062 -4.003906 12.25 -4.171875 C 11.707031 -4.347656 11.109375 -4.46875 10.453125 -4.53125 C 9.804688 -4.601562 9.15625 -4.640625 8.5 -4.640625 C 7.84375 -4.648438 7.242188 -4.648438 6.703125 -4.640625 C 6.160156 -4.640625 5.722656 -4.644531 5.390625 -4.65625 C 5.054688 -4.675781 4.890625 -4.734375 4.890625 -4.828125 C 4.890625 -4.953125 5.09375 -5.050781 5.5 -5.125 C 5.914062 -5.207031 6.503906 -5.25 7.265625 -5.25 C 8.515625 -5.25 9.65625 -5.015625 10.6875 -4.546875 L 13.59375 -5.9375 C 12.820312 -6.414062 11.882812 -6.785156 10.78125 -7.046875 C 9.6875 -7.304688 8.515625 -7.4375 7.265625 -7.4375 C 5.085938 -7.4375 3.410156 -7.226562 2.234375 -6.8125 C 1.054688 -6.394531 0.46875 -5.800781 0.46875 -5.03125 C 0.46875 -4.53125 0.632812 -4.117188 0.96875 -3.796875 C 1.300781 -3.484375 1.738281 -3.242188 2.28125 -3.078125 C 2.820312 -2.921875 3.421875 -2.804688 4.078125 -2.734375 C 4.734375 -2.671875 5.382812 -2.632812 6.03125 -2.625 C 6.6875 -2.625 7.285156 -2.628906 7.828125 -2.640625 C 8.367188 -2.660156 8.804688 -2.65625 9.140625 -2.625 C 9.472656 -2.601562 9.640625 -2.535156 9.640625 -2.421875 C 9.640625 -2.304688 9.429688 -2.210938 9.015625 -2.140625 C 8.609375 -2.066406 8.023438 -2.03125 7.265625 -2.03125 C 6.671875 -2.03125 6.070312 -2.085938 5.46875 -2.203125 C 4.875 -2.316406 4.332031 -2.484375 3.84375 -2.703125 Z M 3.84375 -2.703125 "/></g></g><g style="fill:#2e3192;fill-opacity:1;"><g transform="translate(137.363338, 255.930444)"><path style="stroke:none" d="M 9.59375 -7.4375 C 11.15625 -7.4375 12.363281 -7.109375 13.21875 -6.453125 C 14.070312 -5.804688 14.5 -4.894531 14.5 -3.71875 L 14.5 0 L 9.421875 0 L 9.421875 -2.28125 C 9.421875 -3 9.28125 -3.550781 9 -3.9375 C 8.726562 -4.332031 8.332031 -4.53125 7.8125 -4.53125 C 6.925781 -4.53125 6.316406 -4 5.984375 -2.9375 L 5.984375 0 L 0.90625 0 L 0.90625 -9.0625 L 5.984375 -9.0625 L 5.984375 -5.921875 C 6.703125 -6.890625 7.90625 -7.394531 9.59375 -7.4375 Z M 9.59375 -7.4375 "/></g></g><g style="fill:#2e3192;fill-opacity:1;"><g transform="translate(152.583824, 255.930444)"><path style="stroke:none" d="M 7.4375 0.1875 C 5.257812 0.1875 3.582031 -0.144531 2.40625 -0.8125 C 1.226562 -1.476562 0.640625 -2.414062 0.640625 -3.625 C 0.640625 -4.84375 1.226562 -5.78125 2.40625 -6.4375 C 3.582031 -7.101562 5.257812 -7.4375 7.4375 -7.4375 C 9.601562 -7.4375 11.273438 -7.101562 12.453125 -6.4375 C 13.640625 -5.78125 14.234375 -4.84375 14.234375 -3.625 C 14.234375 -2.414062 13.640625 -1.476562 12.453125 -0.8125 C 11.273438 -0.144531 9.601562 0.1875 7.4375 0.1875 Z M 7.4375 -2.53125 C 7.988281 -2.53125 8.410156 -2.628906 8.703125 -2.828125 C 9.003906 -3.023438 9.15625 -3.289062 9.15625 -3.625 C 9.15625 -3.976562 9.003906 -4.25 8.703125 -4.4375 C 8.410156 -4.625 7.988281 -4.71875 7.4375 -4.71875 C 6.875 -4.71875 6.441406 -4.625 6.140625 -4.4375 C 5.847656 -4.25 5.703125 -3.976562 5.703125 -3.625 C 5.703125 -3.289062 5.847656 -3.023438 6.140625 -2.828125 C 6.441406 -2.628906 6.875 -2.53125 7.4375 -2.53125 Z M 7.4375 -2.53125 "/></g></g><g style="fill:#2e3192;fill-opacity:1;"><g transform="translate(167.441922, 255.930444)"><path style="stroke:none" d="M 9.140625 -7.4375 C 10.847656 -7.4375 12.164062 -7.101562 13.09375 -6.4375 C 14.03125 -5.78125 14.5 -4.84375 14.5 -3.625 C 14.5 -2.414062 14.03125 -1.476562 13.09375 -0.8125 C 12.164062 -0.144531 10.847656 0.1875 9.140625 0.1875 C 7.796875 0.1875 6.742188 -0.109375 5.984375 -0.703125 L 5.984375 1.8125 L 0.90625 1.8125 L 0.90625 -7.25 L 5.984375 -7.25 L 5.984375 -6.546875 C 6.742188 -7.140625 7.796875 -7.4375 9.140625 -7.4375 Z M 7.703125 -2.53125 C 8.253906 -2.53125 8.675781 -2.628906 8.96875 -2.828125 C 9.269531 -3.023438 9.421875 -3.289062 9.421875 -3.625 C 9.421875 -3.976562 9.269531 -4.25 8.96875 -4.4375 C 8.675781 -4.625 8.253906 -4.71875 7.703125 -4.71875 C 7.148438 -4.71875 6.722656 -4.625 6.421875 -4.4375 C 6.128906 -4.25 5.984375 -3.976562 5.984375 -3.625 C 5.984375 -3.289062 6.128906 -3.023438 6.421875 -2.828125 C 6.722656 -2.628906 7.148438 -2.53125 7.703125 -2.53125 Z M 7.703125 -2.53125 "/></g></g></g></svg>