<svg xmlns="http://www.w3.org/2000/svg" xmlns:xlink="http://www.w3.org/1999/xlink" width="500" zoomAndPan="magnify" viewBox="0 0 375 374.999991" height="500" preserveAspectRatio="xMidYMid meet" version="1.2"><defs><clipPath id="2076e19647"><path d="M 140 86 L 241.980469 86 L 241.980469 194.089844 L 140 194.089844 Z M 140 86 "/></clipPath><clipPath id="8fb3d08071"><path d="M 133.230469 74.089844 L 196 74.089844 L 196 178 L 133.230469 178 Z M 133.230469 74.089844 "/></clipPath><clipPath id="ba973423f9"><path d="M 122.832031 71.53125 L 133.230469 71.53125 L 133.230469 193.882812 L 122.832031 193.882812 Z M 122.832031 71.53125 "/></clipPath></defs><g id="56611e55c0"><path style=" stroke:none;fill-rule:nonzero;fill:#3871c1;fill-opacity:1;" d="M 218.457031 139.570312 L 183.425781 79.707031 C 183.425781 79.707031 177.535156 83.449219 171.242188 89.292969 L 174.746094 95.285156 C 176.695312 94.234375 178.824219 93.273438 181.148438 92.457031 L 207.265625 135.484375 C 207.265625 135.484375 153.316406 154.035156 139.683594 186.335938 C 139.683594 186.335938 160.757812 154.453125 218.457031 139.570312 "/><g clip-rule="nonzero" clip-path="url(#2076e19647)"><path style=" stroke:none;fill-rule:nonzero;fill:#2e3192;fill-opacity:1;" d="M 206.917969 86.117188 C 206.917969 86.117188 201.03125 89.859375 194.734375 95.703125 L 198.242188 101.695312 C 200.1875 100.644531 202.316406 99.683594 204.640625 98.863281 L 230.757812 141.894531 C 230.757812 141.894531 163.667969 157.203125 140.328125 194.097656 C 140.328125 194.097656 170.917969 163.636719 241.949219 145.980469 L 206.917969 86.117188 "/></g><g clip-rule="nonzero" clip-path="url(#8fb3d08071)"><path style=" stroke:none;fill-rule:nonzero;fill:#00adef;fill-opacity:1;" d="M 138.925781 177.191406 C 138.925781 177.191406 154.636719 144.902344 195.449219 133.957031 L 160.417969 74.09375 C 160.417969 74.09375 133.847656 90.964844 133.261719 109.011719 C 133.261719 109.011719 139.480469 93.425781 158.136719 86.84375 L 184.253906 129.871094 C 184.253906 129.871094 147.390625 145.925781 138.925781 177.191406 "/></g><g clip-rule="nonzero" clip-path="url(#ba973423f9)"><path style=" stroke:none;fill-rule:nonzero;fill:#00adef;fill-opacity:1;" d="M 122.832031 71.53125 L 133.230469 71.53125 L 133.230469 193.886719 L 122.832031 193.886719 Z M 122.832031 71.53125 "/></g><g style="fill:#2e3192;fill-opacity:1;"><g transform="translate(122.831394, 264.544824)"><path style="stroke:none" d="M 1.78125 1.40625 C 2.1875 1.40625 2.492188 1.316406 2.703125 1.140625 C 2.910156 0.972656 3.132812 0.554688 3.375 -0.109375 L 0.125 -7.9375 L 1.609375 -7.9375 L 4.046875 -1.421875 L 6.359375 -7.9375 L 7.78125 -7.9375 L 4.53125 0.53125 C 4.238281 1.300781 3.898438 1.835938 3.515625 2.140625 C 3.128906 2.453125 2.632812 2.609375 2.03125 2.609375 C 1.84375 2.609375 1.648438 2.59375 1.453125 2.5625 C 1.253906 2.539062 1.0625 2.515625 0.875 2.484375 L 0.875 1.328125 C 0.988281 1.359375 1.117188 1.378906 1.265625 1.390625 C 1.410156 1.398438 1.582031 1.40625 1.78125 1.40625 Z M 1.78125 1.40625 "/></g></g><g style="fill:#2e3192;fill-opacity:1;"><g transform="translate(130.785499, 264.544824)"><path style="stroke:none" d="M 8.03125 -3.984375 C 8.03125 -2.484375 7.753906 -1.421875 7.203125 -0.796875 C 6.648438 -0.179688 5.707031 0.125 4.375 0.125 C 2.988281 0.125 2.023438 -0.171875 1.484375 -0.765625 C 0.953125 -1.367188 0.6875 -2.441406 0.6875 -3.984375 C 0.6875 -5.492188 0.960938 -6.554688 1.515625 -7.171875 C 2.066406 -7.785156 3.019531 -8.09375 4.375 -8.09375 C 5.75 -8.09375 6.703125 -7.789062 7.234375 -7.1875 C 7.765625 -6.59375 8.03125 -5.523438 8.03125 -3.984375 Z M 2 -4 C 2 -2.820312 2.15625 -2.039062 2.46875 -1.65625 C 2.78125 -1.28125 3.414062 -1.09375 4.375 -1.09375 C 5.289062 -1.09375 5.910156 -1.289062 6.234375 -1.6875 C 6.554688 -2.09375 6.71875 -2.863281 6.71875 -4 C 6.71875 -5.175781 6.5625 -5.953125 6.25 -6.328125 C 5.945312 -6.710938 5.320312 -6.90625 4.375 -6.90625 C 3.4375 -6.90625 2.804688 -6.707031 2.484375 -6.3125 C 2.160156 -5.914062 2 -5.144531 2 -4 Z M 2 -4 "/></g></g><g style="fill:#2e3192;fill-opacity:1;"><g transform="translate(139.510917, 264.544824)"><path style="stroke:none" d="M 3.625 0.125 C 2.75 0.125 2.09375 -0.09375 1.65625 -0.53125 C 1.21875 -0.96875 1 -1.625 1 -2.5 L 1 -7.9375 L 2.3125 -7.9375 L 2.3125 -2.671875 C 2.3125 -2.117188 2.445312 -1.71875 2.71875 -1.46875 C 3 -1.226562 3.441406 -1.109375 4.046875 -1.109375 C 4.410156 -1.109375 4.773438 -1.148438 5.140625 -1.234375 C 5.515625 -1.328125 5.890625 -1.472656 6.265625 -1.671875 L 6.265625 -7.9375 L 7.578125 -7.9375 L 7.578125 0 L 6.375 0 L 6.3125 -0.65625 L 6.28125 -0.65625 C 5.71875 -0.363281 5.234375 -0.160156 4.828125 -0.046875 C 4.421875 0.0664062 4.019531 0.125 3.625 0.125 Z M 3.625 0.125 "/></g></g><g style="fill:#2e3192;fill-opacity:1;"><g transform="translate(148.155983, 264.544824)"><path style="stroke:none" d="M 2.375 0 L 1.0625 0 L 1.0625 -7.9375 L 2.265625 -7.9375 L 2.328125 -7.265625 L 2.390625 -7.265625 C 2.804688 -7.503906 3.222656 -7.6875 3.640625 -7.8125 C 4.054688 -7.9375 4.472656 -8 4.890625 -8 C 5.054688 -8 5.164062 -8 5.21875 -8 C 5.28125 -8 5.328125 -7.992188 5.359375 -7.984375 L 5.359375 -6.71875 C 5.285156 -6.738281 5.191406 -6.75 5.078125 -6.75 C 4.972656 -6.757812 4.800781 -6.765625 4.5625 -6.765625 C 4.175781 -6.765625 3.796875 -6.71875 3.421875 -6.625 C 3.054688 -6.53125 2.707031 -6.394531 2.375 -6.21875 Z M 2.375 0 "/></g></g><g style="fill:#2e3192;fill-opacity:1;"><g transform="translate(153.828303, 264.544824)"><path style="stroke:none" d=""/></g></g><g style="fill:#2e3192;fill-opacity:1;"><g transform="translate(156.576084, 264.544824)"><path style="stroke:none" d="M 3.796875 -6.90625 C 3.109375 -6.90625 2.628906 -6.820312 2.359375 -6.65625 C 2.097656 -6.5 1.96875 -6.175781 1.96875 -5.6875 C 1.96875 -5.425781 2.03125 -5.226562 2.15625 -5.09375 C 2.28125 -4.96875 2.476562 -4.878906 2.75 -4.828125 L 4.78125 -4.53125 C 5.425781 -4.4375 5.875 -4.234375 6.125 -3.921875 C 6.382812 -3.617188 6.515625 -3.140625 6.515625 -2.484375 C 6.515625 -1.566406 6.296875 -0.898438 5.859375 -0.484375 C 5.421875 -0.078125 4.691406 0.125 3.671875 0.125 C 3.066406 0.125 2.5 0.09375 1.96875 0.03125 C 1.445312 -0.03125 1.015625 -0.113281 0.671875 -0.21875 L 0.671875 -1.46875 C 1.015625 -1.351562 1.4375 -1.257812 1.9375 -1.1875 C 2.4375 -1.125 2.945312 -1.09375 3.46875 -1.09375 C 4.132812 -1.09375 4.585938 -1.1875 4.828125 -1.375 C 5.078125 -1.570312 5.203125 -1.914062 5.203125 -2.40625 C 5.203125 -2.71875 5.128906 -2.945312 4.984375 -3.09375 C 4.847656 -3.238281 4.597656 -3.335938 4.234375 -3.390625 L 2.203125 -3.6875 C 1.679688 -3.769531 1.296875 -3.96875 1.046875 -4.28125 C 0.796875 -4.601562 0.664062 -5.070312 0.65625 -5.6875 C 0.65625 -6.519531 0.90625 -7.128906 1.40625 -7.515625 C 1.90625 -7.898438 2.671875 -8.09375 3.703125 -8.09375 C 4.140625 -8.09375 4.53125 -8.082031 4.875 -8.0625 C 5.21875 -8.039062 5.582031 -8 5.96875 -7.9375 L 5.96875 -6.765625 C 5.695312 -6.804688 5.375 -6.835938 5 -6.859375 C 4.625 -6.890625 4.222656 -6.90625 3.796875 -6.90625 Z M 3.796875 -6.90625 "/></g></g><g style="fill:#2e3192;fill-opacity:1;"><g transform="translate(163.630327, 264.544824)"><path style="stroke:none" d="M 2.375 -10.6875 L 2.375 0 L 1.0625 0 L 1.0625 -10.6875 Z M 2.375 -10.6875 "/></g></g><g style="fill:#2e3192;fill-opacity:1;"><g transform="translate(167.069071, 264.544824)"><path style="stroke:none" d="M 8.03125 -3.984375 C 8.03125 -2.484375 7.753906 -1.421875 7.203125 -0.796875 C 6.648438 -0.179688 5.707031 0.125 4.375 0.125 C 2.988281 0.125 2.023438 -0.171875 1.484375 -0.765625 C 0.953125 -1.367188 0.6875 -2.441406 0.6875 -3.984375 C 0.6875 -5.492188 0.960938 -6.554688 1.515625 -7.171875 C 2.066406 -7.785156 3.019531 -8.09375 4.375 -8.09375 C 5.75 -8.09375 6.703125 -7.789062 7.234375 -7.1875 C 7.765625 -6.59375 8.03125 -5.523438 8.03125 -3.984375 Z M 2 -4 C 2 -2.820312 2.15625 -2.039062 2.46875 -1.65625 C 2.78125 -1.28125 3.414062 -1.09375 4.375 -1.09375 C 5.289062 -1.09375 5.910156 -1.289062 6.234375 -1.6875 C 6.554688 -2.09375 6.71875 -2.863281 6.71875 -4 C 6.71875 -5.175781 6.5625 -5.953125 6.25 -6.328125 C 5.945312 -6.710938 5.320312 -6.90625 4.375 -6.90625 C 3.4375 -6.90625 2.804688 -6.707031 2.484375 -6.3125 C 2.160156 -5.914062 2 -5.144531 2 -4 Z M 2 -4 "/></g></g><g style="fill:#2e3192;fill-opacity:1;"><g transform="translate(175.794489, 264.544824)"><path style="stroke:none" d="M 4.28125 2.609375 C 3.75 2.609375 3.25 2.570312 2.78125 2.5 C 2.320312 2.425781 1.941406 2.332031 1.640625 2.21875 L 1.640625 1.046875 C 1.878906 1.140625 2.238281 1.21875 2.71875 1.28125 C 3.195312 1.34375 3.671875 1.375 4.140625 1.375 C 4.941406 1.375 5.5 1.21875 5.8125 0.90625 C 6.125 0.59375 6.28125 0.0351562 6.28125 -0.765625 L 6.28125 -1.265625 C 5.882812 -1.035156 5.460938 -0.859375 5.015625 -0.734375 C 4.566406 -0.609375 4.109375 -0.546875 3.640625 -0.546875 C 2.585938 -0.546875 1.832031 -0.835938 1.375 -1.421875 C 0.914062 -2.015625 0.6875 -2.984375 0.6875 -4.328125 C 0.6875 -5.679688 0.976562 -6.644531 1.5625 -7.21875 C 2.144531 -7.800781 3.140625 -8.09375 4.546875 -8.09375 C 5.046875 -8.09375 5.582031 -8.0625 6.15625 -8 C 6.738281 -7.945312 7.21875 -7.878906 7.59375 -7.796875 L 7.59375 -1.140625 C 7.59375 0.253906 7.347656 1.226562 6.859375 1.78125 C 6.367188 2.332031 5.507812 2.609375 4.28125 2.609375 Z M 4.546875 -6.90625 C 3.515625 -6.90625 2.832031 -6.726562 2.5 -6.375 C 2.164062 -6.019531 2 -5.335938 2 -4.328125 C 2 -3.359375 2.140625 -2.6875 2.421875 -2.3125 C 2.710938 -1.945312 3.265625 -1.765625 4.078125 -1.765625 C 4.429688 -1.765625 4.796875 -1.816406 5.171875 -1.921875 C 5.554688 -2.023438 5.925781 -2.164062 6.28125 -2.34375 L 6.28125 -6.734375 C 6.019531 -6.785156 5.742188 -6.828125 5.453125 -6.859375 C 5.160156 -6.890625 4.859375 -6.90625 4.546875 -6.90625 Z M 4.546875 -6.90625 "/></g></g><g style="fill:#2e3192;fill-opacity:1;"><g transform="translate(184.439555, 264.544824)"><path style="stroke:none" d="M 2.859375 0.125 C 2.046875 0.125 1.445312 -0.0664062 1.0625 -0.453125 C 0.6875 -0.847656 0.5 -1.46875 0.5 -2.3125 C 0.5 -3.164062 0.726562 -3.769531 1.1875 -4.125 C 1.644531 -4.488281 2.425781 -4.671875 3.53125 -4.671875 C 3.894531 -4.671875 4.253906 -4.65625 4.609375 -4.625 C 4.960938 -4.59375 5.296875 -4.546875 5.609375 -4.484375 L 5.609375 -5.25 C 5.609375 -5.84375 5.457031 -6.265625 5.15625 -6.515625 C 4.851562 -6.773438 4.367188 -6.90625 3.703125 -6.90625 C 3.210938 -6.90625 2.78125 -6.882812 2.40625 -6.84375 C 2.03125 -6.8125 1.65625 -6.753906 1.28125 -6.671875 L 1.28125 -7.8125 C 1.707031 -7.914062 2.144531 -7.988281 2.59375 -8.03125 C 3.039062 -8.070312 3.546875 -8.09375 4.109375 -8.09375 C 5.066406 -8.09375 5.773438 -7.867188 6.234375 -7.421875 C 6.691406 -6.984375 6.921875 -6.296875 6.921875 -5.359375 L 6.921875 0 L 5.71875 0 L 5.65625 -0.734375 L 5.625 -0.734375 C 5.300781 -0.484375 4.882812 -0.273438 4.375 -0.109375 C 3.863281 0.046875 3.359375 0.125 2.859375 0.125 Z M 3.671875 -3.59375 C 2.953125 -3.59375 2.445312 -3.503906 2.15625 -3.328125 C 1.875 -3.148438 1.734375 -2.835938 1.734375 -2.390625 C 1.734375 -1.921875 1.847656 -1.582031 2.078125 -1.375 C 2.316406 -1.164062 2.707031 -1.0625 3.25 -1.0625 C 3.664062 -1.0625 4.09375 -1.125 4.53125 -1.25 C 4.96875 -1.382812 5.328125 -1.546875 5.609375 -1.734375 L 5.609375 -3.4375 C 5.253906 -3.488281 4.921875 -3.523438 4.609375 -3.546875 C 4.304688 -3.578125 3.992188 -3.59375 3.671875 -3.59375 Z M 3.671875 -3.59375 "/></g></g><g style="fill:#2e3192;fill-opacity:1;"><g transform="translate(192.361529, 264.544824)"><path style="stroke:none" d="M 2.375 0 L 1.0625 0 L 1.0625 -7.9375 L 2.203125 -7.9375 L 2.265625 -7.15625 L 2.3125 -7.15625 C 2.738281 -7.476562 3.1875 -7.710938 3.65625 -7.859375 C 4.125 -8.015625 4.644531 -8.09375 5.21875 -8.09375 C 6.09375 -8.09375 6.757812 -7.875 7.21875 -7.4375 C 7.675781 -7 7.90625 -6.351562 7.90625 -5.5 L 7.90625 0 L 6.578125 0 L 6.578125 -5.328125 C 6.578125 -5.867188 6.425781 -6.265625 6.125 -6.515625 C 5.832031 -6.773438 5.375 -6.90625 4.75 -6.90625 C 4.363281 -6.90625 3.96875 -6.84375 3.5625 -6.71875 C 3.164062 -6.59375 2.769531 -6.414062 2.375 -6.1875 Z M 2.375 0 "/></g></g><g style="fill:#2e3192;fill-opacity:1;"><g transform="translate(122.831394, 219.764901)"><path style="stroke:none" d="M 26.375 -10 C 28.132812 -9.644531 29.476562 -9.070312 30.40625 -8.28125 C 31.34375 -7.488281 31.8125 -6.515625 31.8125 -5.359375 C 31.8125 -3.648438 30.707031 -2.328125 28.5 -1.390625 C 26.289062 -0.460938 23.140625 0 19.046875 0 L 1.921875 0 L 1.921875 -19.15625 L 21.1875 -19.15625 C 24.082031 -19.15625 26.3125 -18.703125 27.875 -17.796875 C 29.445312 -16.890625 30.234375 -15.59375 30.234375 -13.90625 C 30.234375 -12.039062 28.945312 -10.738281 26.375 -10 Z M 12.640625 -12.1875 L 18.59375 -12.1875 C 19.8125 -12.1875 20.421875 -12.429688 20.421875 -12.921875 C 20.421875 -13.503906 19.8125 -13.796875 18.59375 -13.796875 L 12.640625 -13.796875 Z M 19.359375 -5.359375 C 20.578125 -5.359375 21.1875 -5.664062 21.1875 -6.28125 C 21.1875 -6.894531 20.578125 -7.203125 19.359375 -7.203125 L 12.640625 -7.203125 L 12.640625 -5.359375 Z M 19.359375 -5.359375 "/></g></g><g style="fill:#2e3192;fill-opacity:1;"><g transform="translate(156.274324, 219.764901)"><path style="stroke:none" d="M 15.71875 0.390625 C 11.113281 0.390625 7.566406 -0.3125 5.078125 -1.71875 C 2.585938 -3.125 1.34375 -5.109375 1.34375 -7.671875 C 1.34375 -10.242188 2.585938 -12.226562 5.078125 -13.625 C 7.566406 -15.019531 11.113281 -15.71875 15.71875 -15.71875 C 20.3125 -15.71875 23.851562 -15.019531 26.34375 -13.625 C 28.832031 -12.226562 30.078125 -10.242188 30.078125 -7.671875 C 30.078125 -5.109375 28.832031 -3.125 26.34375 -1.71875 C 23.851562 -0.3125 20.3125 0.390625 15.71875 0.390625 Z M 15.71875 -5.359375 C 16.882812 -5.359375 17.78125 -5.5625 18.40625 -5.96875 C 19.039062 -6.382812 19.359375 -6.953125 19.359375 -7.671875 C 19.359375 -8.410156 19.039062 -8.976562 18.40625 -9.375 C 17.78125 -9.769531 16.882812 -9.96875 15.71875 -9.96875 C 14.539062 -9.96875 13.640625 -9.769531 13.015625 -9.375 C 12.390625 -8.976562 12.078125 -8.410156 12.078125 -7.671875 C 12.078125 -6.953125 12.390625 -6.382812 13.015625 -5.96875 C 13.640625 -5.5625 14.539062 -5.359375 15.71875 -5.359375 Z M 15.71875 -5.359375 "/></g></g><g style="fill:#2e3192;fill-opacity:1;"><g transform="translate(187.686932, 219.764901)"><path style="stroke:none" d="M 15.71875 0.390625 C 11.113281 0.390625 7.566406 -0.3125 5.078125 -1.71875 C 2.585938 -3.125 1.34375 -5.109375 1.34375 -7.671875 C 1.34375 -10.242188 2.585938 -12.226562 5.078125 -13.625 C 7.566406 -15.019531 11.113281 -15.71875 15.71875 -15.71875 C 20.3125 -15.71875 23.851562 -15.019531 26.34375 -13.625 C 28.832031 -12.226562 30.078125 -10.242188 30.078125 -7.671875 C 30.078125 -5.109375 28.832031 -3.125 26.34375 -1.71875 C 23.851562 -0.3125 20.3125 0.390625 15.71875 0.390625 Z M 15.71875 -5.359375 C 16.882812 -5.359375 17.78125 -5.5625 18.40625 -5.96875 C 19.039062 -6.382812 19.359375 -6.953125 19.359375 -7.671875 C 19.359375 -8.410156 19.039062 -8.976562 18.40625 -9.375 C 17.78125 -9.769531 16.882812 -9.96875 15.71875 -9.96875 C 14.539062 -9.96875 13.640625 -9.769531 13.015625 -9.375 C 12.390625 -8.976562 12.078125 -8.410156 12.078125 -7.671875 C 12.078125 -6.953125 12.390625 -6.382812 13.015625 -5.96875 C 13.640625 -5.5625 14.539062 -5.359375 15.71875 -5.359375 Z M 15.71875 -5.359375 "/></g></g><g style="fill:#2e3192;fill-opacity:1;"><g transform="translate(219.09954, 219.764901)"><path style="stroke:none" d="M 1.921875 0 L 1.921875 -19.15625 L 12.640625 -19.15625 L 12.640625 -10.546875 L 19.921875 -15.328125 L 30.65625 -15.328125 L 20.578125 -8.734375 L 30.859375 0 L 19.734375 0 L 14.296875 -4.59375 L 12.640625 -3.53125 L 12.640625 0 Z M 1.921875 0 "/></g></g><g style="fill:#2e3192;fill-opacity:1;"><g transform="translate(250.70845, 219.764901)"><path style="stroke:none" d=""/></g></g><g style="fill:#2e3192;fill-opacity:1;"><g transform="translate(122.831394, 241.767446)"><path style="stroke:none" d="M 8.125 -5.703125 L 2 -2.765625 C 3.914062 -1.765625 6.035156 -0.992188 8.359375 -0.453125 C 10.679688 0.078125 13.019531 0.332031 15.375 0.3125 C 19.96875 0.332031 23.507812 -0.0820312 26 -0.9375 C 28.488281 -1.789062 29.734375 -3.035156 29.734375 -4.671875 C 29.734375 -5.742188 29.382812 -6.613281 28.6875 -7.28125 C 27.988281 -7.945312 27.0625 -8.460938 25.90625 -8.828125 C 24.757812 -9.203125 23.492188 -9.457031 22.109375 -9.59375 C 20.734375 -9.738281 19.351562 -9.816406 17.96875 -9.828125 C 16.59375 -9.835938 15.328125 -9.835938 14.171875 -9.828125 C 13.023438 -9.816406 12.097656 -9.828125 11.390625 -9.859375 C 10.691406 -9.898438 10.34375 -10.007812 10.34375 -10.1875 C 10.34375 -10.46875 10.773438 -10.691406 11.640625 -10.859375 C 12.515625 -11.023438 13.757812 -11.109375 15.375 -11.109375 C 18 -11.109375 20.410156 -10.613281 22.609375 -9.625 L 28.75 -12.578125 C 27.113281 -13.566406 25.128906 -14.335938 22.796875 -14.890625 C 20.472656 -15.441406 18 -15.71875 15.375 -15.71875 C 10.769531 -15.71875 7.222656 -15.273438 4.734375 -14.390625 C 2.242188 -13.503906 1 -12.257812 1 -10.65625 C 1 -9.582031 1.347656 -8.710938 2.046875 -8.046875 C 2.753906 -7.378906 3.679688 -6.875 4.828125 -6.53125 C 5.972656 -6.1875 7.234375 -5.941406 8.609375 -5.796875 C 9.992188 -5.660156 11.375 -5.585938 12.75 -5.578125 C 14.132812 -5.566406 15.398438 -5.570312 16.546875 -5.59375 C 17.703125 -5.625 18.628906 -5.613281 19.328125 -5.5625 C 20.035156 -5.507812 20.390625 -5.367188 20.390625 -5.140625 C 20.390625 -4.878906 19.953125 -4.671875 19.078125 -4.515625 C 18.210938 -4.367188 16.976562 -4.296875 15.375 -4.296875 C 14.113281 -4.296875 12.851562 -4.414062 11.59375 -4.65625 C 10.332031 -4.894531 9.175781 -5.242188 8.125 -5.703125 Z M 8.125 -5.703125 "/></g></g><g style="fill:#2e3192;fill-opacity:1;"><g transform="translate(153.554458, 241.767446)"><path style="stroke:none" d="M 20.28125 -15.71875 C 23.59375 -15.71875 26.148438 -15.03125 27.953125 -13.65625 C 29.753906 -12.289062 30.65625 -10.359375 30.65625 -7.859375 L 30.65625 0 L 19.921875 0 L 19.921875 -4.828125 C 19.921875 -6.335938 19.628906 -7.503906 19.046875 -8.328125 C 18.460938 -9.160156 17.617188 -9.578125 16.515625 -9.578125 C 14.648438 -9.578125 13.359375 -8.453125 12.640625 -6.203125 L 12.640625 0 L 1.921875 0 L 1.921875 -19.15625 L 12.640625 -19.15625 L 12.640625 -12.53125 C 14.179688 -14.570312 16.726562 -15.632812 20.28125 -15.71875 Z M 20.28125 -15.71875 "/></g></g><g style="fill:#2e3192;fill-opacity:1;"><g transform="translate(185.733219, 241.767446)"><path style="stroke:none" d="M 15.71875 0.390625 C 11.113281 0.390625 7.566406 -0.3125 5.078125 -1.71875 C 2.585938 -3.125 1.34375 -5.109375 1.34375 -7.671875 C 1.34375 -10.242188 2.585938 -12.226562 5.078125 -13.625 C 7.566406 -15.019531 11.113281 -15.71875 15.71875 -15.71875 C 20.3125 -15.71875 23.851562 -15.019531 26.34375 -13.625 C 28.832031 -12.226562 30.078125 -10.242188 30.078125 -7.671875 C 30.078125 -5.109375 28.832031 -3.125 26.34375 -1.71875 C 23.851562 -0.3125 20.3125 0.390625 15.71875 0.390625 Z M 15.71875 -5.359375 C 16.882812 -5.359375 17.78125 -5.5625 18.40625 -5.96875 C 19.039062 -6.382812 19.359375 -6.953125 19.359375 -7.671875 C 19.359375 -8.410156 19.039062 -8.976562 18.40625 -9.375 C 17.78125 -9.769531 16.882812 -9.96875 15.71875 -9.96875 C 14.539062 -9.96875 13.640625 -9.769531 13.015625 -9.375 C 12.390625 -8.976562 12.078125 -8.410156 12.078125 -7.671875 C 12.078125 -6.953125 12.390625 -6.382812 13.015625 -5.96875 C 13.640625 -5.5625 14.539062 -5.359375 15.71875 -5.359375 Z M 15.71875 -5.359375 "/></g></g><g style="fill:#2e3192;fill-opacity:1;"><g transform="translate(217.145827, 241.767446)"><path style="stroke:none" d="M 19.3125 -15.71875 C 22.945312 -15.71875 25.742188 -15.019531 27.703125 -13.625 C 29.671875 -12.226562 30.65625 -10.242188 30.65625 -7.671875 C 30.65625 -5.109375 29.671875 -3.125 27.703125 -1.71875 C 25.742188 -0.3125 22.945312 0.390625 19.3125 0.390625 C 16.476562 0.390625 14.253906 -0.238281 12.640625 -1.5 L 12.640625 3.828125 L 1.921875 3.828125 L 1.921875 -15.328125 L 12.640625 -15.328125 L 12.640625 -13.828125 C 14.253906 -15.085938 16.476562 -15.71875 19.3125 -15.71875 Z M 16.28125 -5.359375 C 17.457031 -5.359375 18.359375 -5.5625 18.984375 -5.96875 C 19.609375 -6.382812 19.921875 -6.953125 19.921875 -7.671875 C 19.921875 -8.410156 19.609375 -8.976562 18.984375 -9.375 C 18.359375 -9.769531 17.457031 -9.96875 16.28125 -9.96875 C 15.113281 -9.96875 14.210938 -9.769531 13.578125 -9.375 C 12.953125 -8.976562 12.640625 -8.410156 12.640625 -7.671875 C 12.640625 -6.953125 12.953125 -6.382812 13.578125 -5.96875 C 14.210938 -5.5625 15.113281 -5.359375 16.28125 -5.359375 Z M 16.28125 -5.359375 "/></g></g></g></svg>